<svg xmlns="http://www.w3.org/2000/svg" xmlns:xlink="http://www.w3.org/1999/xlink" width="32" height="32" preserveAspectRatio="xMidYMid meet" viewBox="0 0 32 32" style="-ms-transform: rotate(360deg); -webkit-transform: rotate(360deg); transform: rotate(360deg);"><circle cx="10" cy="28" r="2" fill="#626262"/><circle cx="24" cy="28" r="2" fill="#626262"/><path d="M28 7H5.82L5 2.8A1 1 0 0 0 4 2H0v2h3.18L7 23.2a1 1 0 0 0 1 .8h18v-2H8.82L8 18h18a1 1 0 0 0 1-.78l2-9A1 1 0 0 0 28 7zm-2.8 9H7.62l-1.4-7h20.53z" fill="#626262"/><rect x="0" y="0" width="32" height="32" fill="rgba(0, 0, 0, 0)" /></svg>